<?xml version="1.0" standalone="no"?> <!DOCTYPE svg PUBLIC "-//W3C//DTD SVG 20010904//EN" "http://www.w3.org/TR/2001/REC-SVG-20010904/DTD/svg10.dtd"> <svg version="1.0" xmlns="http://www.w3.org/2000/svg" width="600.000000pt" height="600.000000pt" viewBox="0 0 600.000000 600.000000" preserveAspectRatio="xMidYMid meet"> <g transform="translate(0.000000,600.000000) scale(0.100000,-0.100000)" fill="#ec0909" stroke="none"> <path d="M2210 5799 c-184 -50 -226 -63 -235 -70 -5 -5 -15 -9 -23 -9 -7 0 -37 -11 -67 -25 -69 -33 -89 -66 -111 -182 -17 -88 -17 -95 0 -148 20 -65 59 -108 137 -149 30 -16 90 -48 134 -72 88 -46 281 -114 327 -114 39 0 65 15 82 48 13 26 44 143 62 237 4 22 8 45 9 50 17 75 35 227 30 256 -8 44 -27 66 -103 116 -108 72 -157 85 -242 62z"/> <path d="M2875 5711 c-121 -30 -197 -178 -235 -456 -6 -44 -18 -123 -26 -176 -14 -86 -14 -99 0 -132 8 -21 21 -39 28 -42 64 -21 333 -121 370 -137 61 -27 93 -62 108 -117 27 -104 -27 -301 -122 -439 -32 -46 -145 -136 -218 -172 -79 -40 -299 -105 -331 -98 -15 3 -13 -70 2 -109 5 -13 6 -23 4 -23 -10 0 40 -117 66 -156 83 -121 262 -193 415 -167 95 16 169 56 245 132 114 114 142 187 223 581 35 169 65 306 91 420 8 36 24 106 35 155 11 50 27 119 35 155 28 119 52 254 61 351 17 172 -62 269 -276 337 -90 28 -345 89 -400 95 -25 3 -58 2 -75 -2z"/> <path d="M3943 5553 c-27 -9 -59 -33 -86 -63 -40 -45 -48 -62 -81 -182 -77 -283 -213 -915 -277 -1283 -25 -145 -30 -317 -11 -381 21 -73 51 -106 132 -146 229 -115 526 -33 630 171 15 32 70 183 121 337 50 153 123 371 161 484 206 611 220 668 184 754 -33 80 -126 147 -284 207 -42 16 -86 34 -97 39 -11 6 -69 26 -128 45 -120 39 -193 44 -264 18z"/> <path d="M1245 5381 c-105 -27 -199 -121 -273 -273 -28 -57 -101 -233 -162 -393 -123 -317 -277 -663 -364 -820 -127 -228 -142 -375 -54 -551 53 -109 188 -273 418 -509 124 -127 271 -280 326 -341 56 -60 182 -197 281 -304 99 -107 217 -230 263 -273 236 -222 568 -388 875 -437 99 -16 293 -13 373 5 156 36 299 140 360 261 100 199 81 386 -70 683 -264 519 -695 894 -1343 1172 -91 38 -103 41 -165 37 -84 -6 -162 -44 -297 -145 -84 -62 -217 -143 -237 -143 -21 0 8 37 111 142 l117 118 -95 1 c-51 1 -97 1 -101 0 -16 -2 -161 30 -179 40 -38 20 -15 34 62 36 342 12 471 43 552 132 41 46 48 90 22 141 -8 16 -70 78 -138 139 -152 135 -197 198 -226 319 -13 52 -21 110 -19 142 l3 55 23 -49 c43 -94 115 -192 216 -292 83 -83 116 -108 186 -143 127 -62 209 -80 365 -79 255 2 431 36 592 116 189 93 283 223 283 391 0 49 -4 72 -15 81 -12 10 -15 10 -15 -3 0 -22 -72 -83 -140 -117 -80 -40 -192 -56 -289 -41 -141 22 -218 59 -298 143 -80 85 -123 185 -123 288 0 30 -6 66 -13 78 -8 16 -69 53 -177 109 -91 47 -210 116 -265 153 -114 77 -140 91 -210 113 -66 21 -123 27 -160 18z"/> <path d="M4940 5089 c-86 -26 -133 -96 -195 -289 -20 -63 -54 -164 -75 -225 -139 -404 -220 -706 -220 -823 0 -154 118 -266 311 -294 149 -22 287 15 354 93 93 112 269 552 371 933 29 108 32 244 8 326 -12 40 -29 66 -68 104 -119 116 -374 208 -486 175z"/> <path d="M2145 4907 c-12 -84 13 -179 62 -237 62 -72 221 -129 358 -130 74 0 166 23 220 55 40 23 95 72 95 84 0 3 -76 31 -168 61 -256 83 -458 156 -512 184 l-49 26 -6 -43z"/> <path d="M5511 4168 c-27 -125 -80 -274 -166 -464 -52 -114 -181 -277 -275 -347 -55 -41 -153 -86 -227 -104 -53 -13 -115 -17 -283 -18 -265 0 -267 -1 -409 -142 -116 -115 -192 -226 -290 -428 -38 -77 -76 -146 -85 -154 -14 -12 -16 -10 -16 17 0 72 24 195 59 297 20 61 35 117 33 127 -4 18 -76 52 -148 68 -203 46 -352 120 -424 212 -23 29 -54 56 -69 61 -14 4 -90 2 -169 -4 -79 -6 -151 -8 -160 -4 -14 5 28 -42 138 -155 54 -55 173 -217 232 -315 52 -87 131 -247 171 -345 46 -113 118 -371 152 -548 41 -212 72 -282 158 -353 76 -64 153 -95 392 -159 153 -41 414 -54 509 -26 85 26 119 58 261 248 256 341 412 602 454 758 30 110 78 358 95 490 9 63 18 129 21 145 3 17 10 77 15 135 6 58 17 177 26 265 8 88 17 198 19 245 6 127 8 541 2 546 -3 3 -10 -19 -16 -48z"/> <path d="M2062 1378 c-6 -73 -14 -145 -17 -160 -3 -14 -12 -86 -20 -160 -21 -190 -45 -389 -50 -413 -3 -11 -12 -78 -21 -150 -8 -72 -22 -184 -30 -250 -8 -66 -18 -148 -21 -182 l-6 -63 837 0 c662 0 836 3 836 13 0 12 -15 219 -25 342 -2 33 -9 227 -15 430 -6 204 -13 398 -16 433 -8 93 -34 101 -186 53 -170 -53 -188 -56 -333 -55 -288 1 -630 101 -849 248 -38 25 -69 46 -70 46 -1 0 -7 -60 -14 -132z"/> <path d="M3803 1212 c-34 -10 -64 -19 -66 -22 -9 -9 -38 -286 -102 -970 -8 -91 -18 -177 -21 -193 l-6 -27 566 0 566 0 0 128 c0 70 5 334 10 586 6 253 8 461 6 463 -2 2 -41 -3 -86 -11 -45 -9 -110 -16 -145 -16 -79 0 -322 33 -440 59 -107 24 -197 25 -282 3z"/> </g> </svg>